<svg fill="#000000" version="1.1" xmlns="http://www.w3.org/2000/svg" viewBox="0 0 359.05 359.05" xml:space="preserve"><g><g><path d="M22.527,286.356H132.75L67.292,125.882L2.15,255.333l-0.38,0.857c-2.874,7.521-2.226,15.169,1.784,20.996 C7.557,283.013,14.472,286.356,22.527,286.356z M19.105,263.254l46.402-92.218l39.4,96.614h-82.38 c-2.088,0-3.224-0.573-3.565-1.066C18.643,266.122,18.512,264.989,19.105,263.254z"></path><path d="M281.569,103.828l-17.408-0.536c-10.303-22.828-29.94-39.795-58.23-31.712c-11.582,3.303-6.656,21.354,4.969,18.039 c14.583-4.168,25.282,2.506,32.333,13.037l-105.601-3.236c-10.723-20.825-29.743-35.448-56.41-27.834 c-11.579,3.304-6.652,21.354,4.969,18.039c12.672-3.617,22.405,0.959,29.362,9.116l-6.497-0.201l-0.91-0.013 c-7.837,0-14.547,3.249-18.414,8.912c-3.903,5.718-4.469,13.262-1.559,20.707l58.937,150.686l0.98,2.453 c1.863,4.671,5.087,8.232,27.751,8.232l160.97-0.663c8.087-0.03,14.968-3.416,18.889-9.28c3.928-5.857,4.427-13.518,1.376-21.008 l-53.554-131.4C301.334,121.779,293.266,104.184,281.569,103.828z"></path></g></g></svg>
