<svg viewBox="0 0 32 32" xmlns="http://www.w3.org/2000/svg" fill="#000000"><defs><style>.cls-1{fill:#f9d3e0;}.cls-2{fill:#ee719e;}</style></defs><g id="Menu"><rect class="cls-1" height="6" rx="1" ry="1" width="10" x="11" y="13"></rect><rect class="cls-1" height="6" rx="1" ry="1" width="10" x="11" y="20"></rect><rect class="cls-1" height="6" rx="1" ry="1" width="10" x="11" y="6"></rect><path class="cls-2" d="M20,13H16v6h4a1,1,0,0,0,1-1V14A1,1,0,0,0,20,13Z"></path><path class="cls-2" d="M20,20H16v6h4a1,1,0,0,0,1-1V21A1,1,0,0,0,20,20Z"></path><path class="cls-2" d="M20,6H16v6h4a1,1,0,0,0,1-1V7A1,1,0,0,0,20,6Z"></path></g></svg>
