<svg viewBox="0 0 24 24" fill="none" xmlns="http://www.w3.org/2000/svg"><path opacity="0.5" fill-rule="evenodd" clip-rule="evenodd" d="M15.6987 3.7536C16.6297 3.29889 17.6656 3.04415 18.5288 3.46151C18.9889 3.68399 19.3072 4.05664 19.4998 4.50023C19.6748 4.90322 19.7461 5.36164 19.7502 5.83576C19.7537 6.23436 19.7098 6.66491 19.6257 7.11782C19.4986 7.80246 19.2783 8.5467 18.982 9.32271C18.951 9.40394 18.9074 9.47667 18.8543 9.53952C19.0395 9.60206 19.2203 9.66638 19.3964 9.73238L19.398 9.73299C19.4447 9.75052 19.4959 9.77 19.5418 9.7877C19.6752 9.83919 19.8057 9.89165 19.9333 9.94504C20.2592 10.0815 20.5657 10.224 20.8503 10.3719C21.1429 10.5239 21.416 10.6833 21.666 10.8499C22.5282 11.4244 23.2707 12.1904 23.3457 13.1462C23.3857 13.6557 23.2245 14.1185 22.9386 14.5086C22.6789 14.8629 22.3191 15.1558 21.9118 15.3985C21.5693 15.6025 21.1754 15.7818 20.742 15.9377C20.0867 16.1733 19.3329 16.3585 18.5134 16.4941C18.1048 16.5617 17.7187 16.2853 17.6511 15.8766C17.5834 15.4679 17.8599 15.0818 18.2685 15.0142C18.8304 14.9212 19.3343 14.8067 19.7754 14.676L19.7805 14.6744C20.3465 14.5064 20.8022 14.3136 21.1439 14.1099C21.4382 13.9346 21.6232 13.766 21.7288 13.6219C21.834 13.4782 21.8583 13.3649 21.8503 13.2636C21.8318 13.0276 21.6033 12.6106 20.8342 12.0982C20.6356 11.9658 20.4102 11.8336 20.1588 11.703L18.8625 11.1341C17.1096 10.478 14.7616 9.97604 12.177 9.79571" fill="#f4a4c0"></path></svg>
