<svg viewBox="0 0 24 24" fill="none" xmlns="http://www.w3.org/2000/svg"><path d="M10.2768 16.5148C10.2815 16.405 10.4634 16.3613 10.5174 16.4571C10.7707 16.9068 11.2029 17.5682 11.6932 17.8689C12.1836 18.1696 12.969 18.2549 13.4847 18.2768C13.5945 18.2815 13.6381 18.4634 13.5423 18.5174C13.0926 18.7707 12.4313 19.2029 12.1306 19.6932C11.8299 20.1836 11.7446 20.969 11.7227 21.4847C11.718 21.5945 11.536 21.6381 11.4821 21.5423C11.2287 21.0926 10.7966 20.4313 10.3062 20.1306C9.81588 19.8299 9.03048 19.7446 8.51481 19.7227C8.40495 19.718 8.36133 19.536 8.45713 19.4821C8.90682 19.2287 9.56818 18.7966 9.86889 18.3062C10.1696 17.8159 10.2549 17.0305 10.2768 16.5148Z" fill="#f4a4c0"></path><path opacity="0.5" d="M18.4919 15.5147C18.4834 15.4051 18.2916 15.3591 18.2343 15.453C18.062 15.7355 17.8135 16.0764 17.5374 16.2458C17.2612 16.4152 16.8446 16.482 16.5147 16.5075C16.4051 16.516 16.3591 16.7078 16.453 16.7651C16.7355 16.9374 17.0764 17.1858 17.2458 17.462C17.4152 17.7382 17.482 18.1548 17.5075 18.4847C17.516 18.5943 17.7078 18.6403 17.7651 18.5464C17.9374 18.2639 18.1858 17.923 18.462 17.7536C18.7382 17.5842 19.1548 17.5174 19.4847 17.4919C19.5943 17.4834 19.6403 17.2916 19.5464 17.2343C19.2639 17.062 18.923 16.8135 18.7536 16.5374C18.5842 16.2612 18.5174 15.8446 18.4919 15.5147Z" fill="#f4a4c0"></path></svg>
