<svg viewBox="-68.09 0 288.873 288.873" xmlns="http://www.w3.org/2000/svg" fill="#000000"><defs><style>.a{fill:#ffffff;}.b{fill:#211715;}.c{fill:#f8b8b4;}</style></defs><path class="a" d="M79.73,56H71.883c.367-14.274,1.13-30.642-5.078-44.06-1.537-3.323-4.634-8.1-8.875-9.2a8.606,8.606,0,0,0-7.441,1.22A14.557,14.557,0,0,0,45.548,10.8,40.107,40.107,0,0,0,43.017,24.2a53.783,53.783,0,0,0,1.44,13.428,100.237,100.237,0,0,0,6.7,20.3,38.04,38.04,0,0,0-12.23,9.042c-6.866,7.185-12.76,20.346-12.753,29.733a30.409,30.409,0,0,0-5.819,23.5A25.16,25.16,0,0,0,34.5,138.473c.249.109.5.214.753.314a92.358,92.358,0,0,0-21.1,61.731,50.918,50.918,0,0,0-5.761,9.062c-3.345,7.525-5.4,13.405-5.878,21.96-.459,8.182.727,13.5,3.943,19.227a44.006,44.006,0,0,0,6.864,8.654c8.174,7.118,21.158,9.71,29.2,11.859-.554,2.726-1.295,5.9-.813,7.382a11.166,11.166,0,0,0,7.289,6.788,18.384,18.384,0,0,0,9.066.786c1.907-.221,4.686-.741,6.233-2.013,1.992-1.637,4.889-5.24,5.333-7.963a11.8,11.8,0,0,0,.018-3H82.544a11.8,11.8,0,0,0,.018,3c.444,2.723,3.341,6.326,5.333,7.963,1.547,1.272,4.326,1.792,6.233,2.013a18.384,18.384,0,0,0,9.066-.786,11.166,11.166,0,0,0,7.289-6.788c.441-1.361-.305-4.422-.967-7.212,7.973-2.185,21.431-4.723,29.822-12.029a44.006,44.006,0,0,0,6.864-8.654c3.216-5.727,4.4-11.045,3.943-19.227-.48-8.555-2.533-14.435-5.878-21.96a54.043,54.043,0,0,0-6.3-9.778,92.442,92.442,0,0,0-21.1-60.994c.27-.107.539-.218.806-.335a25.16,25.16,0,0,0,14.136-18.262,30.409,30.409,0,0,0-5.819-23.5c.007-9.387-5.887-22.548-12.753-29.733a37.968,37.968,0,0,0-12.166-9.009,100.126,100.126,0,0,0,6.721-20.336,53.783,53.783,0,0,0,1.44-13.428A40.107,40.107,0,0,0,106.7,10.8a14.557,14.557,0,0,0-4.941-6.834,8.606,8.606,0,0,0-7.441-1.22c-4.241,1.1-7.338,5.877-8.875,9.2C79.232,25.361,80,41.729,80.362,56Z"></path><path class="b" d="M78.687,118.358c-1.837.568-6.058.211-6.408-3.254.04-4.581,5.145-4.838,7.541-3.3C81.782,113.06,82.589,116.771,78.687,118.358Z"></path><path class="b" d="M53.359,100.112c-.748,2.42-.278,7.981,4.288,8.442,6.036-.052,6.374-6.778,4.35-9.935C60.34,96.034,55.45,94.971,53.359,100.112Z"></path><path class="b" d="M98.886,100.112c.748,2.42.278,7.982-4.288,8.443-6.036-.053-6.374-6.78-4.35-9.936C91.905,96.034,96.794,94.97,98.886,100.112Z"></path><path class="b" d="M75.4,126.734a26.108,26.108,0,0,1,2.86-2.57l-.486.376q.195-.15.392-.3l-2.908-.375a34.1,34.1,0,0,1,3.2,2.81,2.4,2.4,0,0,0,3.394-3.394,33.832,33.832,0,0,0-3.195-2.81,2.692,2.692,0,0,0-1.378-.66,2.207,2.207,0,0,0-1.531.285,30.428,30.428,0,0,0-3.737,3.242,2.4,2.4,0,1,0,3.394,3.394Z"></path><path class="c" d="M98.356,26.809a3.142,3.142,0,0,0-2-2.436,3.035,3.035,0,0,0-2.9.966,7.366,7.366,0,0,0-1.7,2.713,91.884,91.884,0,0,0-4.194,24.82,1.793,1.793,0,0,0,.6,1.551,11.6,11.6,0,0,0,4.066,1.467,2.283,2.283,0,0,0,1.506-.157,1.425,1.425,0,0,0,.667-.941c1.354-5.337,2.3-9.933,3.271-15.031a53.06,53.06,0,0,0,.943-10.709A10.361,10.361,0,0,0,98.356,26.809Z"></path><path class="c" d="M53.829,26.809a3.139,3.139,0,0,1,2-2.436,3.033,3.033,0,0,1,2.9.966,7.368,7.368,0,0,1,1.7,2.713,91.922,91.922,0,0,1,4.194,24.82,1.793,1.793,0,0,1-.6,1.551,11.594,11.594,0,0,1-4.067,1.467,2.281,2.281,0,0,1-1.5-.157,1.419,1.419,0,0,1-.667-.941c-1.354-5.337-2.3-9.933-3.271-15.031a52.988,52.988,0,0,1-.943-10.709A10.361,10.361,0,0,1,53.829,26.809Z"></path></svg>
