<svg xmlns="http://www.w3.org/2000/svg" width="320" height="260" viewBox="0 0 320 260">
  <ellipse cx="160" cy="170" rx="92" ry="66" fill="#ffd7b8"/>
  <circle cx="130" cy="140" r="10" fill="#4f3b2f"/>
  <circle cx="190" cy="140" r="10" fill="#4f3b2f"/>
  <path d="M146 165q14 12 28 0" stroke="#8a5f44" stroke-width="6" fill="none" stroke-linecap="round"/>
  <path d="M95 108l-22-32 36 12zM225 108l22-32-36 12z" fill="#ffd7b8"/>
  <path d="M95 108l-10-16 18 6zM225 108l10-16-18 6z" fill="#ffb3c7"/>
  <path d="M145 84c0-10 8-18 18-18 7 0 12 5 15 9 3-4 8-9 15-9 10 0 18 8 18 18 0 20-33 40-33 40s-33-20-33-40z" fill="#ff4f95"/>
</svg>
